<svg xmlns="http://www.w3.org/2000/svg" width="400" height="251.89775368"><path d="M136.998.263c-3.315.251-7.288.777-7.445.986-.07.092-1.658.431-3.529.753-1.872.321-3.459.664-3.529.76-.069.097-1.083.366-2.253.598-1.171.231-2.191.514-2.269.627-.077.113-1.044.401-2.149.64-1.104.239-2.068.525-2.142.635-.127.189-1.004.467-3.474 1.101-.589.151-1.071.359-1.071.461 0 .103-.624.383-1.387.622-.762.24-1.386.524-1.386.631 0 .106-.624.39-1.386.63-.762.24-1.386.52-1.386.623 0 .102-.675.439-1.5.747-.825.309-1.534.635-1.576.724-.041.09-.529.39-1.083.667-.555.276-1.158.645-1.341.819-.184.173-.474.315-.646.315-.172 0-.532.204-.801.453-.269.249-1.027.713-1.686 1.031-.658.318-1.198.653-1.2.744-.001.092-.511.391-1.134.664-.622.274-1.132.588-1.132.699 0 .11-.312.335-.693.5-.381.164-1.167.615-1.746 1.002-.58.388-1.15.704-1.268.704-.117 0-.408.227-.645.505-.591.69-.692.66-2.099-.621-.68-.618-1.633-1.327-2.118-1.575-.485-.248-.973-.593-1.084-.766-.111-.173-.366-.315-.567-.315-.201 0-.585-.22-.854-.488-.269-.269-1.233-.744-2.142-1.057-.91-.312-1.654-.649-1.654-.75 0-.1-.879-.386-1.954-.635-1.074-.248-2.01-.528-2.079-.62-.655-.875-13.013-.869-13.611.006-.069.102-1.062.395-2.205.652-1.144.256-2.08.543-2.08.636 0 .094-1.134.434-2.52.756-1.386.322-2.521.666-2.521.764 0 .098-.794.372-1.764.61s-1.764.513-1.764.612c0 .098-1.134.447-2.521.774-1.386.327-2.52.669-2.52.76 0 .09-.851.376-1.891.635-1.039.259-1.89.542-1.89.63 0 .088-.851.371-1.89.63-1.04.259-1.891.55-1.891.648 0 .097-.81.423-1.801.724-.991.301-2.04.691-2.332.867-.291.176-1.012.469-1.601.652-.589.183-1.071.412-1.071.509 0 .098-.51.373-1.134.611-.624.238-1.134.517-1.134.62 0 .102-.567.442-1.261.755-.693.314-1.26.648-1.26.744 0 .096-.425.398-.945.671-.52.274-1.093.697-1.275.94-.181.243-.48.442-.664.442-.184 0-.52.284-.747.63-.227.347-.534.631-.681.631-.304 0-6.022 5.659-6.022 5.96 0 .108-.282.484-.628.835-1.425 1.452-2.308 2.604-2.555 3.332-.078.233-.302.485-.496.559-.195.075-.354.288-.354.474s-.203.559-.452.827c-.249.269-.724 1.056-1.054 1.749-.331.693-.674 1.317-.762 1.386-.088.07-.362.636-.607 1.26-.246.623-.527 1.19-.626 1.26-.207.147-1.035 2.674-1.035 3.159 0 .181-.111.366-.247.413-.136.046-.499 1.218-.806 2.604-.308 1.386-.647 2.582-.753 2.656-.853.597-1.595 15.715-1.002 20.411.504 3.989.896 6.422 1.054 6.549.086.069.422 2.337.745 5.041.324 2.703.667 4.971.762 5.041.095.069.378 1.855.629 3.969s.534 3.844.628 3.844c.095 0 .382 1.588.637 3.529.255 1.94.54 3.528.633 3.528.092 0 .242.709.331 1.576.245 2.373.949 6.347 1.15 6.49.097.069.38.892.63 1.827.249.936.545 1.702.657 1.702.113 0 .276.324.363.72.149.681 1.453 2.966 2.19 3.839.404.478.912 1.24 1.127 1.689.179.375 4.082 4.338 4.272 4.338.178 0 1.619 1.047 2.168 1.575.252.243.623.441.824.441.201 0 .456.142.567.315.111.173.655.541 1.21.817.554.276 1.07.585 1.145.687.158.213 3.168 1.206 3.656 1.206.178 0 .362.109.408.243.1.291 3.412 1.017 4.637 1.017.476 0 .866.113.866.252 0 .157 1.512.252 4.033.252 2.218 0 4.033-.097 4.033-.216s.652-.285 1.449-.37c.797-.084 1.815-.228 2.262-.318l.814-.165.068 30.285c.049 21.515.149 30.338.344 30.465.151.099.48.946.731 1.882.25.935.552 1.701.67 1.701s.215.129.215.287c0 .454 1.1 2.59 1.449 2.813.173.111.316.338.318.504.004.465 1.36 2.005 4.534 5.148 3.703 3.667 3.905 3.85 4.234 3.85.151 0 .422.21.604.467.181.256.687.651 1.125.877.438.225.835.498.882.604.048.107.625.468 1.284.801.658.334 1.197.677 1.197.763 0 .086.509.38 1.132.654.622.273 1.132.571 1.134.661.001.09.569.368 1.262.617.694.249 1.261.53 1.261.625 0 .094.68.426 1.512.737s1.512.64 1.512.731c0 .092.517.319 1.148.506.632.186 1.284.469 1.45.629.165.159.953.509 1.75.776.797.268 1.449.56 1.449.65 0 .089.851.415 1.891.724 1.039.309 1.89.64 1.89.737 0 .175 2.668 1.044 3.205 1.044.155 0 .32.114.366.253.046.139.765.443 1.596.676.832.233 1.577.519 1.656.634.08.116 1.157.459 2.395.761 1.238.303 2.287.637 2.331.743.045.106.981.386 2.08.622 1.099.236 1.998.509 1.998.606 0 .098.992.383 2.205.634s2.263.531 2.332.622c.069.091 1.487.428 3.15.75 1.664.322 3.082.662 3.151.756.069.094 1.345.377 2.836.63 1.49.253 2.709.535 2.709.628 0 .093 1.361.377 3.025.632 1.663.256 3.024.547 3.024.649 0 .101.709.264 1.576.361 2.093.234 2.999.693 3.598 1.822.517.975.866 1.44 1.821 2.433.312.325.567.689.567.809 0 .202 3.662 3.801 5.159 5.068.36.306 1.133.817 1.717 1.135.583.318 1.281.776 1.55 1.019.27.243.631.441.803.441.172 0 .462.148.646.328.183.181.843.531 1.466.779.624.248 1.191.533 1.26.633.122.175 2.155.841 3.593 1.177.381.089.693.251.693.36 0 1.518 20.603 1.512 21.676-.007.069-.098 1.544-.439 3.277-.758 1.732-.318 3.207-.656 3.276-.75.07-.094 1.204-.377 2.521-.628s2.451-.535 2.52-.632c.07-.096 1.26-.377 2.647-.623 1.386-.246 2.577-.525 2.646-.62.07-.095 1.431-.438 3.025-.763 1.594-.324 2.955-.671 3.024-.771.07-.099 1.261-.382 2.647-.629 1.386-.246 2.577-.526 2.646-.623.07-.096 1.204-.381 2.521-.632s2.451-.534 2.52-.629c.542-.74 6.238-.734 6.806.008.069.091 1.203.37 2.52.621s2.451.537 2.521.635c.069.098 1.288.382 2.709.63s2.584.527 2.584.621c0 .093 1.389.442 3.087.774 1.698.333 3.144.675 3.214.761.069.085 1.203.361 2.52.612s2.451.535 2.521.63c.069.096 1.203.379 2.52.63s2.451.531 2.521.621c.153.2 5.198 1.276 5.965 1.272.3-.001.584.107.63.24.528 1.521 20.635 1.52 21.634-.002.11-.167 1.991-.76 3.718-1.172.312-.075.567-.22.567-.324 0-.103.539-.394 1.197-.645.658-.252 1.36-.621 1.56-.821.2-.199.682-.474 1.071-.609.39-.136.709-.347.709-.468 0-.122.497-.448 1.104-.725.608-.276 1.171-.676 1.253-.888.081-.212.318-.385.528-.385.209 0 .566-.284.793-.631.227-.346.524-.63.66-.63.348 0 3.475-3.133 3.475-3.482 0-.158.284-.473.63-.7.347-.227.63-.563.63-.747 0-.185.2-.483.443-.665.243-.181.659-.741.923-1.244.602-1.145 1.446-1.652 3.121-1.875.721-.095 1.311-.253 1.311-.351 0-.097 1.446-.378 3.213-.623 1.768-.246 3.271-.528 3.34-.629.069-.1 1.317-.387 2.772-.638 1.456-.251 2.704-.53 2.773-.621.069-.09 1.544-.432 3.277-.759 1.732-.327 3.207-.678 3.276-.78.069-.101 1.028-.37 2.131-.598 1.102-.227 2.066-.502 2.142-.611.076-.109 1.074-.409 2.217-.666 1.144-.258 2.08-.539 2.08-.626 0-.087 1.106-.435 2.457-.774 1.352-.338 2.514-.679 2.584-.758.169-.192 2.739-1 3.179-1 .192 0 .349-.092.349-.205 0-.112.709-.414 1.576-.671.866-.256 1.632-.537 1.701-.623.069-.086.977-.433 2.016-.77 1.04-.337 1.947-.683 2.017-.77.069-.087.693-.369 1.386-.626s1.317-.541 1.386-.63c.07-.089.665-.366 1.324-.614.658-.249 1.197-.537 1.197-.64 0-.103.68-.441 1.512-.752s1.512-.647 1.512-.747c0-.099.466-.335 1.035-.522.57-.188 1.09-.485 1.157-.659.067-.174.509-.444.984-.601.474-.156 1.01-.432 1.19-.613.181-.181.804-.571 1.384-.867.581-.296 1.056-.622 1.056-.724 0-.102.368-.346.819-.542.45-.195 1.064-.592 1.364-.88.3-.289.857-.751 1.238-1.029.381-.277 1.023-.816 1.427-1.197.405-.381.812-.695.905-.697.237-.007 3.572-3.401 3.572-3.635 0-.106.312-.511.694-.902 1.271-1.303 1.575-1.675 1.575-1.923 0-.135.23-.494.512-.796.282-.303.743-1.087 1.024-1.744.282-.657.608-1.253.726-1.326.118-.073.421-.926.673-1.896.253-.969.575-1.844.716-1.943.17-.119.279-10.293.326-30.34l.071-30.161.938.168c.515.092 1.532.235 2.26.319.728.083 1.323.249 1.323.368s1.702.217 3.781.217c2.353 0 3.781-.095 3.781-.252 0-.139.312-.252.693-.252.906 0 4.941-.793 5.104-1.003.069-.089.898-.368 1.841-.62.943-.251 1.871-.613 2.061-.803.191-.191.479-.347.641-.347.302 0 1.785-.762 2.01-1.034.07-.083.568-.359 1.108-.613 1.14-.536 1.299-.669 4.311-3.624 1.248-1.223 2.49-2.608 2.76-3.077.271-.468.696-1.071.945-1.34.25-.269.454-.629.454-.801 0-.172.146-.463.324-.646.334-.344 1.44-2.865 1.44-3.283 0-.13.153-.389.34-.576.186-.186.489-1.057.672-1.935.184-.878.428-1.66.543-1.737.115-.077.456-1.665.758-3.529.301-1.863.625-3.444.718-3.514.094-.069.379-1.94.634-4.158.254-2.218.539-4.09.631-4.159.092-.069.374-1.771.626-3.781.252-2.01.533-3.711.625-3.781.091-.069.431-2.337.755-5.041.323-2.703.663-4.971.754-5.041 1.419-1.074 1.457-25.422.042-26.46-.098-.072-.441-1.151-.763-2.399-.322-1.247-.669-2.325-.772-2.394-.103-.07-.398-.835-.654-1.702-.257-.866-.55-1.575-.651-1.575-.101 0-.38-.596-.619-1.323-.239-.728-.577-1.408-.75-1.511-.174-.102-.52-.755-.77-1.449-.25-.694-.547-1.262-.66-1.262-.114 0-.396-.397-.627-.882-.232-.486-.51-.882-.62-.882-.109 0-.421-.483-.692-1.072-.271-.589-.727-1.214-1.014-1.388-.287-.175-.522-.443-.522-.596 0-.31-.117-.437-4.021-4.38-3.235-3.267-4.429-4.311-5.519-4.827-.187-.089-.602-.4-.921-.692-.941-.859-1.302-1.122-2.315-1.689-.528-.296-1.017-.62-1.087-.721-.069-.1-.664-.386-1.323-.635-.658-.249-1.197-.532-1.197-.63 0-.097-.482-.326-1.071-.509s-1.298-.468-1.576-.633c-.277-.166-1.411-.566-2.52-.891-1.109-.324-2.073-.671-2.143-.77-.07-.1-.863-.372-1.764-.605-.9-.234-1.694-.506-1.764-.606-.069-.1-.915-.392-1.88-.649-.965-.258-2.037-.615-2.383-.795-.347-.179-1.457-.521-2.468-.76-1.012-.238-1.839-.507-1.839-.598 0-.09-.907-.372-2.016-.625s-2.017-.546-2.017-.651c0-.104-1.077-.435-2.394-.735-1.317-.3-2.394-.636-2.394-.746 0-.11-1.05-.402-2.332-.648-1.282-.247-2.388-.531-2.457-.631-.62-.894-13.038-.889-13.611.005-.069.108-.859.384-1.755.613-.895.228-1.69.516-1.766.639-.076.123-.478.305-.892.404-.837.2-2.076.825-2.595 1.309-.185.173-.478.315-.65.315-.172 0-.539.211-.817.47-.277.258-.736.594-1.019.745-.528.283-2.402 1.747-3.152 2.462-.411.392-1.469.302-1.469-.125 0-.107-.452-.411-1.005-.676-.553-.265-1.007-.564-1.008-.666-.002-.101-.457-.415-1.011-.698-.555-.283-1.01-.597-1.011-.698-.002-.101-.456-.401-1.008-.666-.553-.264-1.006-.55-1.006-.633 0-.084-.595-.434-1.322-.779-.727-.344-1.521-.825-1.764-1.068-.244-.242-.604-.441-.803-.441-.198 0-.511-.141-.696-.315-.186-.173-.789-.541-1.342-.818-.552-.277-1.135-.627-1.295-.777-.16-.151-.926-.474-1.701-.717-.776-.244-1.411-.525-1.411-.623 0-.098-.595-.389-1.323-.647-.728-.257-1.55-.623-1.827-.812-.278-.189-.958-.466-1.513-.616-.554-.149-1.066-.365-1.137-.479-.071-.113-1.035-.469-2.142-.79-1.108-.321-2.147-.711-2.31-.865-.163-.155-1.014-.422-1.891-.595-.876-.172-1.654-.41-1.728-.53-.074-.119-1.038-.412-2.142-.651-1.105-.239-2.065-.513-2.134-.609-.153-.209-6.192-1.246-7.263-1.246-.418 0-.799-.098-.845-.218C269.459.144 150.745-.777 136.998.263m123.367 13.083c.07.103 1.034.261 2.143.35 2.808.227 7.788.977 7.939 1.196.07.1 1.145.358 2.391.573 1.246.215 2.304.51 2.352.655.049.144.272.263.496.263.694 0 4.843 1.078 4.843 1.258 0 .093.851.382 1.891.641 1.039.259 1.89.551 1.89.649 0 .098.652.38 1.449.627.797.246 1.506.518 1.576.602.19.232 2.79 1.264 3.184 1.264.189 0 .344.102.344.227 0 .126.319.339.709.475.389.136.871.41 1.071.61.2.199.902.568 1.56.82.658.251 1.197.545 1.197.652 0 .108.539.453 1.197.767.659.315 1.288.722 1.399.905.111.183.366.333.567.333.201 0 .567.198.813.441s.87.665 1.386.94c.517.274.939.573.939.665 0 .092.522.412 1.159.711.637.3 1.395.766 1.685 1.036.291.271.677.492.859.492.217 0 .33.344.33 1.008 0 .554-.094 1.008-.209 1.008-1.468 0-1.502 17.851-.034 18.358.134.046.243.231.243.412 0 .567.824 2.906 1.023 2.906.105 0 .387.624.626 1.387.24.762.521 1.386.623 1.386.103 0 .449.709.769 1.575.32.867.654 1.632.741 1.701.088.07.361.637.606 1.26.246.623.522 1.19.613 1.26.265.202 1.048 1.998 1.048 2.404 0 .203.086.369.191.369.104 0 .454.681.776 1.513.323.831.679 1.512.791 1.512.112 0 .408.681.657 1.512.249.832.536 1.513.637 1.513.101 0 .448.68.77 1.512.323.832.672 1.512.777 1.512.105 0 .19.166.19.37 0 .405.783 2.201 1.048 2.403.092.07.368.637.613 1.261.246.623.519 1.19.606 1.259.088.069.421.835.741 1.702.32.866.666 1.575.769 1.575.103 0 .383.624.623 1.386.24.763.516 1.386.615 1.386.098 0 .383.567.632 1.261.249.693.536 1.26.637 1.26.101 0 .449.794.773 1.764.325.971.669 1.764.765 1.764.096 0 .379.539.627 1.198.249.658.526 1.254.615 1.323.089.069.375.693.635 1.386s.604 1.391.764 1.551c.16.16.491.926.735 1.702.244.775.524 1.41.622 1.41.098 0 .383.567.632 1.26.249.693.551 1.261.67 1.261.12 0 .344.482.499 1.071.155.589.508 1.46.785 1.936.276.476.675 1.374.886 1.996.211.622.544 1.29.739 1.485.195.196.481.857.635 1.47.155.614.36 1.115.457 1.115.097 0 .443.652.77 1.45.327.797.664 1.506.75 1.575.086.069.316.623.512 1.23.195.608.499 1.248.674 1.423.175.175.512.812.75 1.416.237.604.581 1.189.764 1.299.183.111.333.372.333.579 0 .207.264.641.586.963.322.322.775.985 1.007 1.473.232.488.592.953.801 1.033.208.08.379.304.379.497 0 .194.278.63.618.971 1.125 1.124 1.134 1.388 1.136 33.476.001 31.175-.066 33.636-.938 34.262-.11.078-.41.618-.666 1.199-.256.581-.621 1.116-.812 1.19-.19.073-.346.261-.346.417 0 .374-3.112 3.512-3.483 3.512-.157 0-.472.284-.699.63-.227.347-.564.63-.748.63-.184 0-.483.206-.664.458-.181.252-.5.535-.708.628-.551.25-1.287.742-1.861 1.246-.276.242-.629.441-.785.441-.156 0-.503.202-.772.45-.268.248-.885.606-1.371.795-.485.19-1.003.491-1.151.67-.148.178-.885.565-1.638.86-1.592.622-4.085 1.797-4.268 2.011-.069.082-.835.37-1.701.642-.867.272-1.575.57-1.575.663 0 .092-.794.414-1.765.714-.97.3-1.764.65-1.764.777s-.157.231-.349.231c-.483 0-3.025.82-3.18 1.025-.069.092-.948.378-1.953.635-1.005.258-1.828.548-1.828.646 0 .098-1.077.427-2.394.732-1.317.304-2.394.631-2.394.726 0 .095-1.021.38-2.269.633-1.248.254-2.268.539-2.268.635 0 .097-1.078.387-2.395.646s-2.394.544-2.394.633c0 .089-1.503.427-3.34.752-1.837.324-3.396.668-3.466.762-.069.095-.919.306-1.89.47-.97.163-1.963.356-2.205.429-.396.118-.441-.085-.439-1.964.002-2.018-.898-7.76-1.257-8.02-.095-.069-.374-1.147-.619-2.394-.245-1.248-.521-2.326-.615-2.395-.093-.069-.433-1.147-.754-2.394-.322-1.248-.667-2.325-.766-2.395-.1-.069-.385-.891-.635-1.827-.249-.936-.527-1.701-.617-1.701-.091 0-.376-.738-.634-1.639s-.559-1.638-.67-1.638c-.11 0-.281-.368-.38-.818-.179-.813-.87-2.47-1.131-2.711-.076-.069-.294-.614-.486-1.21s-.536-1.299-.764-1.562c-.228-.263-.567-.938-.752-1.5-.185-.561-.418-1.021-.518-1.021-.1 0-.435-.68-.747-1.512-.311-.832-.636-1.514-.723-1.515-.087-.002-.385-.484-.662-1.071-.277-.588-.702-1.289-.945-1.557-.243-.269-.442-.63-.442-.801 0-.172-.162-.475-.36-.673-.198-.198-.607-.886-.91-1.53-.302-.644-.646-1.171-.762-1.171-.117 0-.409-.413-.649-.919-.24-.505-.699-1.202-1.02-1.549-.321-.346-.584-.779-.584-.962 0-.183-.227-.454-.504-.602-.277-.149-.504-.435-.504-.637s-.227-.509-.504-.682c-.277-.173-.504-.45-.504-.614 0-.165-.284-.522-.63-.795-.347-.272-.63-.569-.63-.659 0-.351-1.332-2.017-3.466-4.337-.312-.339-.567-.684-.567-.766 0-.413-6.136-6.806-7.203-7.505-.405-.265-.943-.745-1.196-1.065-.253-.321-.577-.584-.72-.584-.143 0-.484-.283-.756-.63-.273-.346-.654-.63-.847-.63-.193 0-.472-.227-.62-.504-.149-.277-.43-.504-.625-.504s-.503-.199-.684-.441c-.182-.243-.727-.663-1.212-.933s-1.102-.695-1.371-.945c-.268-.25-.616-.454-.771-.454-.156 0-.503-.204-.772-.453-.269-.25-.883-.675-1.366-.946-.483-.27-1.03-.633-1.215-.806-.186-.173-.446-.315-.577-.315-.132 0-.663-.276-1.18-.614-.517-.337-1.45-.813-2.074-1.058-.623-.244-1.269-.578-1.435-.74-.166-.163-.818-.449-1.449-.636-.632-.186-1.148-.416-1.148-.511 0-.095-.38-.396-.843-.669-.838-.495-.844-.512-.995-2.837-.083-1.287-.246-2.407-.361-2.49-.115-.082-.413-.808-.661-1.613-.249-.805-.614-1.526-.813-1.602-.198-.076-.36-.278-.36-.448 0-.337-1.726-2.157-2.046-2.157-.108 0-.495-.277-.86-.615-.364-.338-1.022-.692-1.462-.787-.44-.096-.866-.279-.948-.408-.675-1.057-39.363-1.041-40.04.017-.076.119-.498.295-.938.391-.44.095-1.098.449-1.462.787-.365.338-.752.615-.86.615-.265 0-2.046 1.792-2.046 2.058 0 .116-.2.41-.444.654-.244.244-.608.953-.808 1.576-.201.622-.459 1.197-.574 1.277-.114.081-.302 1.262-.417 2.625-.226 2.672-.427 3.033-1.853 3.325-.381.078-.693.226-.693.328 0 .103-.538.39-1.197.639-.658.249-1.256.54-1.328.648-.072.108-.639.439-1.26.736-2.035.971-3.313 1.672-3.483 1.91-.092.129-.621.46-1.175.735-.555.276-1.099.644-1.21.817-.111.173-.35.315-.53.315-.181 0-.626.276-.989.612-.364.337-1.032.819-1.487 1.071-.454.253-.973.658-1.155.901-.181.242-.48.441-.664.441-.184 0-.52.283-.747.63-.228.347-.548.63-.714.63-.165 0-.531.217-.813.482-.282.264-1.121 1.058-1.864 1.764-.742.705-1.433 1.283-1.534 1.283-.285 0-5.378 5.106-5.923 5.938-.267.408-.748.948-1.069 1.2-.32.253-.583.559-.583.681s-.376.596-.835 1.053c-.46.458-1.11 1.229-1.446 1.714-.732 1.058-1.221 1.679-1.823 2.315-.247.261-.684.924-.971 1.474-.286.55-.623 1-.748 1-.124 0-.226.143-.226.317 0 .175-.259.6-.576.945-.316.346-.775 1.053-1.02 1.573-.244.52-.54.945-.657.945-.116 0-.46.527-.762 1.171-.303.644-.712 1.332-.91 1.53-.198.198-.36.501-.36.673 0 .171-.198.532-.441.801-.243.268-.668.942-.945 1.496-.277.555-.58 1.066-.673 1.137-.093.071-.411.743-.708 1.495-.296.752-.694 1.488-.884 1.636-.19.148-.471.751-.625 1.341-.154.589-.374 1.071-.488 1.071-.115 0-.412.538-.661 1.197-.248.658-.519 1.254-.601 1.323-.193.163-.753 1.628-1.085 2.836-.143.52-.349.945-.458.945-.108 0-.399.652-.646 1.449s-.52 1.506-.607 1.575c-.086.07-.365.797-.619 1.617s-.607 1.771-.784 2.113c-.178.342-.523 1.372-.768 2.29-.244.917-.529 1.727-.632 1.799-.104.072-.381.979-.615 2.016-.235 1.037-.505 1.942-.6 2.012-.349.253-1.057 4.225-1.202 6.742-.082 1.421-.245 2.584-.363 2.584-.117 0-.214.226-.214.504 0 .277.114.504.252.504.47 0 .255.721-.264.886-.548.174-4.06-.356-4.273-.645-.069-.094-1.543-.429-3.276-.745-1.733-.316-3.207-.652-3.277-.745-.069-.094-1.147-.38-2.394-.636-1.248-.256-2.325-.54-2.395-.632-.069-.092-1.09-.372-2.268-.622-1.178-.25-2.199-.528-2.269-.617-.069-.089-1.146-.426-2.394-.748-1.247-.321-2.325-.668-2.394-.771-.07-.102-.949-.397-1.954-.655s-1.827-.537-1.827-.619c0-.083-.794-.369-1.765-.635-.97-.265-1.764-.553-1.764-.638 0-.085-.879-.428-1.953-.761-1.075-.333-2.104-.751-2.288-.928-.184-.177-.836-.448-1.449-.602-.613-.155-1.115-.375-1.115-.49 0-.115-.624-.406-1.386-.647-.763-.24-1.387-.515-1.387-.612 0-.096-.68-.43-1.512-.741s-1.512-.648-1.512-.749c0-.1-.511-.393-1.134-.651-.624-.257-1.135-.545-1.135-.64 0-.095-.51-.413-1.134-.706-.624-.293-1.134-.618-1.134-.722 0-.104-.369-.349-.819-.545-.797-.346-1.115-.589-2.487-1.907-.362-.348-.759-.633-.882-.633-.182 0-1.823-1.657-4.266-4.306-.202-.219-.368-.51-.368-.645 0-.136-.213-.476-.474-.756-1.276-1.37-1.29-1.75-1.29-34.847 0-33.702-.045-32.669 1.495-34.256.524-.541 1.164-1.34 1.422-1.776.257-.436.537-.793.621-.793.084 0 .419-.538.745-1.197.325-.658.667-1.254.761-1.323.093-.069.373-.665.621-1.323.249-.659.547-1.198.663-1.198.116 0 .392-.623.614-1.386.222-.762.489-1.386.595-1.386.105 0 .456-.794.78-1.764.325-.971.669-1.765.765-1.765.096 0 .37-.51.608-1.134.239-.624.529-1.134.645-1.134.116 0 .289-.369.384-.819.095-.451.489-1.387.875-2.08.387-.693.779-1.619.871-2.058.093-.44.368-1.029.612-1.311.244-.281.601-1 .793-1.596.192-.596.42-1.141.505-1.21.086-.069.423-.778.75-1.575.327-.797.674-1.45.77-1.45.097 0 .302-.501.457-1.115.154-.613.431-1.265.615-1.449.184-.184.54-.873.792-1.531.251-.659.555-1.198.675-1.198.119 0 .217-.155.217-.344 0-.48 1.054-2.993 1.409-3.359.161-.166.444-.818.631-1.45.186-.631.416-1.148.511-1.148.094 0 .375-.567.624-1.26.25-.693.535-1.26.635-1.26.1 0 .427-.737.727-1.639.3-.901.627-1.638.727-1.638.1 0 .386-.567.635-1.26.249-.693.531-1.26.625-1.26.094 0 .324-.517.511-1.148.186-.632.47-1.284.63-1.45.355-.366 1.409-2.879 1.409-3.359 0-.189.098-.344.218-.344s.423-.539.675-1.198c.251-.658.611-1.35.798-1.538.188-.187.475-.84.638-1.449.163-.61.369-1.109.458-1.109.089 0 .432-.68.763-1.512.33-.832.683-1.512.784-1.512.101 0 .353-.57.56-1.267.206-.696.532-1.423.723-1.614.192-.191.556-1.009.811-1.818.254-.809.614-1.623.799-1.808.185-.185.463-.839.618-1.452.154-.613.371-1.115.481-1.115.11 0 .404-.879.653-1.953.249-1.075.528-2.01.621-2.08 1.4-1.047 1.397-16.004-.004-16.877-.216-.134-.352-.977-.298-1.837.015-.243.192-.441.392-.441s.512-.201.693-.446c.181-.245.868-.727 1.526-1.071.659-.344 1.198-.705 1.198-.802 0-.098.397-.366.882-.597.485-.23.882-.506.882-.614 0-.108.454-.378 1.008-.6.555-.221 1.008-.491 1.008-.598 0-.107.596-.472 1.324-.812.727-.34 1.38-.69 1.449-.779.069-.088.551-.36 1.071-.604.52-.244.945-.526.945-.626 0-.101.652-.399 1.45-.664.797-.264 1.508-.559 1.58-.655.191-.254 2.495-1.214 2.914-1.214.197 0 .357-.096.357-.212 0-.117.681-.418 1.513-.67.831-.252 1.512-.54 1.512-.639 0-.1.794-.387 1.764-.639.971-.252 1.765-.53 1.765-.619 0-.089 1.106-.435 2.457-.768 1.352-.334 2.521-.692 2.598-.797.077-.104 1.324-.382 2.772-.616 1.448-.234 2.689-.501 2.759-.594.315-.42 6.069-1.07 10.523-1.188 2.668-.071 4.852-.227 4.852-.347 0-.443 114.636-.425 114.933.019M69.628 25.122c.936.214 1.702.468 1.702.564 0 .097.567.379 1.26.629.693.249 1.26.558 1.26.686s.286.342.637.475c.35.133.702.414.783.624.08.21.276.382.434.382.403 0 2.8 2.34 3.347 3.266.249.421.529.766.621.766.093 0 .432.652.753 1.449.322.798.72 1.587.884 1.755 1.148 1.172.99 11.919-.175 11.919-.102 0-.431.737-.731 1.638-.3.901-.627 1.639-.727 1.639-.1 0-.385.567-.635 1.26-.249.693-.53 1.26-.624 1.26-.095 0-.325.517-.511 1.148-.187.632-.481 1.29-.654 1.463-.173.173-.579 1.046-.902 1.939-.324.894-.712 1.752-.863 1.907-.151.155-.429.75-.618 1.323s-.433 1.042-.542 1.042c-.11 0-.396.624-.636 1.386-.24.763-.516 1.386-.612 1.386-.097 0-.43.681-.741 1.513-.311.831-.641 1.512-.732 1.512-.092 0-.319.517-.505 1.148-.187.632-.467 1.284-.623 1.449-.404.43-1.067 1.928-1.277 2.886-.099.45-.269.818-.378.818-.108 0-.392.511-.631 1.134-.238.624-.515 1.135-.616 1.135-.101 0-.388.68-.637 1.512s-.539 1.512-.644 1.512c-.221 0-1.267 2.42-1.267 2.932 0 .19-.102.345-.226.345-.125 0-.431.567-.68 1.26-.25.693-.539 1.26-.643 1.26-.104 0-.386.624-.626 1.386-.241.763-.516 1.387-.612 1.387-.097 0-.43.68-.741 1.512s-.641 1.512-.732 1.512c-.092 0-.319.517-.505 1.148-.187.632-.472 1.284-.633 1.45-.162.165-.45.698-.64 1.183-.191.485-.725 1.694-1.187 2.685-.462.992-.84 1.928-.84 2.08 0 .152-.104.276-.232.276-.127 0-.429.593-.669 1.318-.241.724-.572 1.451-.735 1.614-.163.163-.496.931-.74 1.707s-.528 1.41-.631 1.41c-.103 0-.4.624-.659 1.386-.259.763-.539 1.387-.621 1.387-.083 0-.354.567-.604 1.26-.249.693-.537 1.26-.639 1.26-.103 0-.335.451-.517 1.002-.182.551-.512 1.206-.734 1.456-.221.25-.629.905-.905 1.456-.277.551-.702 1.149-.946 1.33-.243.182-.442.437-.442.567 0 .334-1.899 2.255-2.23 2.255-.15 0-.394.227-.542.504-.149.277-.421.504-.605.504-.185 0-.608.214-.94.475-.718.565-3.748 1.541-4.783 1.541-.401 0-.73.114-.73.252 0 .15-.924.252-2.268.252-1.344 0-2.269-.102-2.269-.252 0-.138-.304-.252-.677-.252-.806 0-4.435-.986-4.616-1.254-.069-.103-.523-.389-1.008-.635s-.973-.602-1.084-.791c-.11-.19-.338-.344-.506-.344-.167 0-1.013-.766-1.879-1.702-2.292-2.474-2.293-2.476-2.858-3.91-.285-.723-.608-1.373-.716-1.443-.278-.18-1.022-3.271-1.022-4.241 0-.441-.094-.803-.207-.803-.114 0-.413-1.616-.663-3.591-.251-1.976-.535-3.649-.631-3.718-.096-.069-.444-2.224-.773-4.789-.329-2.564-.672-4.719-.762-4.789-.09-.069-.367-1.827-.616-3.907-.249-2.079-.529-3.837-.624-3.906-.094-.07-.375-1.941-.624-4.159s-.54-4.09-.648-4.159c-.796-.51-.797-13.362-.001-13.862.11-.07.406-1.119.658-2.332.251-1.213.542-2.205.645-2.205.103 0 .378-.681.611-1.513.233-.831.501-1.512.593-1.512.093 0 .374-.568.623-1.262.25-.695.588-1.347.751-1.45.162-.102.505-.662.761-1.243.256-.581.622-1.116.812-1.189.191-.073.347-.285.347-.472 0-.186.201-.558.448-.827.246-.268.723-.885 1.061-1.37.337-.486.816-1.031 1.064-1.212.248-.181.458-.465.466-.63.008-.165.522-.755 1.142-1.309.62-.555 1.624-1.462 2.23-2.016 1.287-1.176 1.864-1.597 2.473-1.801.243-.082.441-.246.441-.366s.454-.449 1.009-.732c.554-.283 1.008-.603 1.008-.711 0-.109.567-.401 1.26-.651.693-.249 1.26-.537 1.26-.639 0-.103.469-.341 1.042-.53.573-.189 1.193-.496 1.379-.681.185-.186 1.162-.582 2.172-.881 1.009-.299 1.891-.62 1.961-.712.069-.092.976-.381 2.016-.641s1.947-.541 2.016-.625c.07-.083 1.005-.356 2.08-.606 1.074-.251 1.953-.531 1.953-.623 0-.092 1.021-.43 2.269-.752 1.247-.321 2.268-.66 2.268-.753 0-.092.879-.383 1.953-.646 1.075-.264 2.01-.551 2.08-.639.069-.088.976-.374 2.016-.636 1.04-.261 1.947-.549 2.016-.638.243-.313 5.429-1.171 6.428-1.064.554.06 1.774.284 2.709.499m267.392-.006c1.022.229 1.915.494 1.984.59.07.096 1.119.38 2.332.632 1.213.252 2.205.544 2.205.649 0 .105.879.395 1.954.643 1.074.249 2.01.53 2.079.624.069.094 1.09.429 2.268.743 1.179.315 2.2.654 2.269.754.069.1.977.386 2.016.634 1.04.249 1.947.528 2.017.62.069.093.92.378 1.89.634.97.256 1.821.532 1.89.611.07.08.977.414 2.017.741 1.039.328 1.947.672 2.016.766.069.093.69.381 1.379.64.689.258 1.37.57 1.512.693.143.123.618.416 1.056.651 2.779 1.491 3.363 1.846 3.363 2.041 0 .12.198.285.441.367.615.206 1.186.625 2.544 1.864.645.59 1.587 1.44 2.093 1.89.505.451.931.953.945 1.116.014.163.284.503.6.756.315.253.851.856 1.19 1.342.339.485.818 1.102 1.064 1.37.247.269.448.641.448.827 0 .187.165.402.366.479.201.077.49.516.641.975.152.458.482 1.071.734 1.362.251.29.654 1.152.894 1.916.24.763.527 1.388.637 1.388.111 0 .405.766.655 1.701.249.936.546 1.766.66 1.844.113.078.398 1.042.633 2.142.234 1.1.514 2.062.622 2.138.646.453.622 12.659-.025 13.093-.191.128-1.037 5.665-1.031 6.744.002.312-.093.568-.21.568-.118 0-.421 1.786-.675 3.969-.253 2.184-.541 4.027-.639 4.096-.097.069-.438 2.451-.756 5.293s-.653 5.224-.745 5.293c-.092.069-.367 1.657-.612 3.529-.244 1.871-.522 3.459-.617 3.528-.095.07-.364 1.139-.598 2.376-.234 1.237-.519 2.315-.634 2.395-.114.079-.417.711-.672 1.405-.256.693-.675 1.463-.932 1.711-.258.248-.468.562-.468.698 0 .322-3.192 3.514-3.514 3.514-.136 0-.45.207-.698.46-.248.253-.848.615-1.333.805-.485.189-.95.443-1.033.563-.193.281-3.668 1.186-4.575 1.192-.382.002-.693.118-.693.256 0 .144-.757.252-1.765.252s-1.764-.108-1.764-.252c0-.138-.285-.252-.633-.252-.828 0-4.207-.938-4.391-1.219-.079-.12-.593-.43-1.143-.688-1.142-.537-1.145-.54-3.6-2.888-1.005-.961-1.827-1.857-1.827-1.99 0-.134-.205-.392-.455-.573-.251-.181-.726-1.01-1.056-1.841-.33-.832-.679-1.569-.774-1.639-.096-.069-.379-.778-.629-1.575-.25-.797-.536-1.449-.636-1.449-.099 0-.384-.567-.634-1.261-.249-.693-.53-1.26-.624-1.26-.095 0-.426-.68-.737-1.512s-.641-1.512-.732-1.512c-.092 0-.319-.517-.506-1.149-.186-.631-.47-1.283-.631-1.449-.162-.165-.554-.925-.874-1.687-.962-2.3-1.851-4.152-2.055-4.285-.106-.069-.396-.75-.644-1.512-.248-.763-.587-1.523-.752-1.69-.165-.167-.507-.876-.758-1.576-.252-.699-.548-1.271-.66-1.271-.111 0-.202-.166-.202-.37 0-.405-.783-2.201-1.048-2.403-.092-.07-.367-.637-.613-1.261-.246-.623-.518-1.19-.606-1.259-.088-.07-.421-.835-.741-1.702-.32-.866-.666-1.575-.769-1.575-.103 0-.383-.624-.623-1.386-.239-.763-.516-1.386-.615-1.386-.098 0-.382-.567-.631-1.261-.25-.693-.53-1.26-.623-1.26-.093 0-.44-.794-.77-1.764-.331-.971-.681-1.764-.78-1.764-.098 0-.381-.539-.63-1.198-.249-.658-.527-1.254-.617-1.323-.091-.069-.425-.829-.743-1.689-.317-.86-.65-1.597-.74-1.638-.24-.111-1.045-1.923-1.045-2.353 0-.203-.091-.369-.202-.369-.112 0-.407-.567-.656-1.26-.249-.693-.551-1.261-.67-1.261s-.384-.562-.588-1.25c-.204-.687-.651-1.736-.993-2.331-.342-.595-.699-1.45-.793-1.901-.094-.45-.27-.819-.39-.819-.121 0-.416-.624-.656-1.386-.241-.763-.52-1.386-.622-1.386-.102 0-.431-.794-.731-1.765-.301-.97-.638-1.764-.751-1.764-.112 0-.411-1.021-.663-2.268-.252-1.248-.548-2.269-.657-2.269-.253 0-.261-4.214-.008-4.327.104-.046.394-.864.644-1.817.25-.954.619-1.898.819-2.098.2-.2.364-.509.364-.687 0-.178.272-.616.604-.975.332-.358.644-.756.693-.884.127-.33 1.529-2.093 1.979-2.488.208-.183.76-.669 1.226-1.081.466-.412 1.175-.894 1.575-1.071.401-.177.728-.396.728-.487 0-.091.567-.369 1.26-.618.693-.25 1.26-.526 1.26-.615 0-.089.766-.295 1.702-.457 3.559-.617 4.384-.633 6.648-.127M174.165 51.115c0 .111-.936.337-2.079.502-1.921.278-3.666.748-3.97 1.068-.069.073-.636.353-1.26.623-.624.269-1.225.635-1.336.812-.111.177-.366.322-.567.322-.201 0-.58.214-.841.476-.262.262-.644.574-.848.693-.741.433-2.32 1.761-3.856 3.242-2.303 2.222-3.243 2.899-4.028 2.899-.181 0-.37.125-.421.278-.051.153-1.025.372-2.163.487-3.01.303-3.051.321-4.903 2.092-2.16 2.065-2.381 6.717-.418 8.824.262.282.477.596.477.698 0 .102.34.365.756.583.416.218 1.074.564 1.463.768 1.446.761 8.367.664 8.367-.117 0-.104.681-.379 1.512-.613.832-.233 1.513-.509 1.513-.612 0-.104.381-.327.847-.495.466-.169 1.175-.588 1.575-.933.401-.344.869-.626 1.041-.626.172 0 .455-.227.628-.504.173-.278.449-.504.614-.504.164 0 .506-.263.758-.584.253-.321.793-.801 1.2-1.068.406-.266 1.256-1.024 1.886-1.685.631-.66 1.285-1.2 1.454-1.2.168 0 .396-.158.507-.351.235-.409 1.937-1.162 2.627-1.162.26 0 .473-.113.473-.252 0-.138.454-.252 1.008-.252.555 0 1.009.092 1.009.205 0 .112.595.354 1.323.537.728.183 1.526.545 1.774.804s.614.471.813.471c.2 0 .549.283.776.63.227.346.545.63.707.63.162 0 .976.652 1.809 1.449 1.788 1.711 2.42 2.226 3.551 2.893.462.273.841.581.841.683 0 .103.469.342 1.041.531.573.189 1.19.492 1.372.673.181.182 1.102.527 2.046.768.944.241 1.778.521 1.854.623.564.753 9.763.689 10.028-.07.046-.133.232-.241.412-.241.56 0 3.017-.848 3.326-1.148.162-.157.66-.437 1.108-.622.447-.186 1.097-.6 1.444-.922.347-.321.743-.584.88-.584s.507-.256.822-.567c.315-.312.94-.851 1.389-1.198.448-.346 1.281-1.054 1.851-1.572.569-.518 1.131-.943 1.25-.945.119-.002.439-.287.712-.633.272-.347.657-.63.855-.63.198 0 .36-.109.36-.243 0-.855 4.722-1.291 6.704-.618 1.2.407 1.448.56 2.531 1.554.34.312.716.567.836.567s.504.34.854.756.742.756.872.756.676.454 1.214 1.008c.537.554 1.074 1.008 1.193 1.008s.439.284.712.631c.272.346.651.63.842.63.191 0 .438.145.549.322.111.177.684.535 1.273.794.589.26 1.071.554 1.071.653 0 .099.709.379 1.576.621.866.242 1.637.539 1.714.66.601.951 7.881.773 9.099-.222 1.327-1.085 2.451-2.376 2.707-3.11.617-1.77.181-6.338-.653-6.851-.181-.111-.328-.363-.328-.561 0-.197-.369-.548-.819-.779-.451-.23-.889-.527-.974-.658-.084-.131-1.272-.404-2.639-.608-1.367-.203-2.546-.449-2.619-.547-.073-.097-.586-.333-1.141-.524-1.033-.356-1.325-.564-2.78-1.982-.462-.45-.936-.819-1.053-.819-.116 0-.672-.489-1.235-1.087-.563-.598-1.411-1.36-1.884-1.693-.474-.333-1.024-.765-1.224-.959-.199-.194-.682-.464-1.071-.6-.39-.136-.709-.332-.709-.436 0-.104-.482-.402-1.071-.662-.589-.259-1.128-.546-1.197-.636-.203-.265-4.302-1.236-5.215-1.236-.459 0-.834-.114-.834-.252 0-.15-.924-.252-2.269-.252-1.344 0-2.268.102-2.268.252 0 .138-.369.253-.819.254-1.115.002-4.751.89-4.947 1.208-.087.141-.669.457-1.292.702-.623.246-1.224.596-1.335.779-.111.183-.354.333-.541.333-.186 0-.606.282-.932.626-.327.344-.694.628-.815.63-.252.005-1.923 1.385-3.056 2.522-.416.418-.836.759-.933.759-.098 0-.447.255-.775.567-1.379 1.308-2.832 2.206-3.572 2.206-.215 0-.391.113-.391.252 0 .144-.756.252-1.764.252-.97 0-1.764-.087-1.764-.193 0-.106-.575-.397-1.277-.646-1.245-.443-1.479-.593-2.865-1.836-.369-.331-.745-.602-.837-.602-.092 0-.708-.567-1.369-1.26-.662-.693-1.301-1.26-1.421-1.26-.12 0-.424-.227-.675-.504-.251-.278-.609-.504-.795-.504-.187 0-.339-.111-.339-.246s-.369-.434-.819-.665c-.451-.231-.876-.497-.945-.591-.07-.094-.637-.372-1.26-.618s-1.205-.562-1.292-.703c-.172-.278-3.773-1.205-4.695-1.208-.312-.001-.567-.116-.567-.254 0-.152-1.008-.252-2.52-.252-1.387 0-2.521.09-2.521.201m-62.5 60.333c-.897.128-1.691.331-1.765.45-.074.119-.556.296-1.072.393-.515.097-1.455.504-2.087.905-.633.401-1.256.73-1.385.73s-1.044.822-2.033 1.827c-2.287 2.324-2.504 2.573-2.504 2.872 0 .136-.217.48-.483.765-.524.562-1.13 2.158-1.422 3.743-.101.55-.272 1.058-.38 1.129-.359.236-.404 19.222-.046 19.342.173.058.315.326.315.595 0 .588.923 3.283 1.194 3.484.106.079.416.582.689 1.118.567 1.112 3.694 4.34 4.431 4.574.27.086.491.253.491.37 0 .118.51.409 1.134.648.624.238 1.134.513 1.134.612 0 .209 3.506 1.013 4.418 1.013.343 0 .623.113.623.252 0 .145.799.252 1.891.252s1.89-.107 1.89-.252c0-.139.312-.256.693-.261 1.049-.014 3.889-.667 4.066-.935.086-.13.695-.44 1.353-.689.659-.249 1.198-.543 1.198-.653 0-.11.198-.265.441-.343.242-.079.872-.54 1.4-1.025.527-.486 1.066-.883 1.197-.883s.238-.162.238-.36c0-.198.255-.566.567-.819.312-.253.842-.97 1.179-1.594.336-.624.682-1.191.768-1.26.224-.179 1.015-2.741 1.015-3.285 0-.249.142-.501.315-.559.418-.139.463-19.768.046-20.047-.147-.099-.457-.852-.687-1.673-.23-.822-.512-1.559-.626-1.638-.115-.08-.407-.571-.649-1.091-.242-.521-1.2-1.693-2.129-2.607-2.334-2.294-2.585-2.498-3.517-2.865-.45-.177-.819-.416-.819-.531 0-.115-.652-.41-1.449-.656-.797-.246-1.511-.532-1.586-.637-.419-.58-5.166-.822-8.047-.411m170.384 0c-.897.128-1.691.32-1.764.426-.074.106-.786.395-1.583.642-.797.246-1.449.524-1.449.618 0 .093-.45.364-1.001.602-1.262.547-5.072 4.311-5.55 5.483-.198.485-.498 1.024-.667 1.197-.169.173-.45.967-.625 1.764s-.399 1.506-.497 1.576c-.721.505-.746 19.865-.026 20.105.165.055.3.314.3.575 0 .568.744 2.834.989 3.012.095.069.429.626.743 1.237.313.611.846 1.328 1.183 1.594.338.265.614.644.614.842 0 .198.086.36.192.36.105 0 .644.395 1.197.877.553.483 1.073.88 1.155.882.083.003.476.285.874.627s1.068.697 1.488.788c.421.091.835.276.922.412.184.289 2.811.941 3.813.947.381.002.693.117.693.256 0 .147.84.252 2.016.252 1.176 0 2.017-.105 2.017-.252 0-.139.289-.252.643-.252 1.081 0 4.223-.798 4.591-1.166.191-.191.487-.347.659-.347.172 0 .533-.204.801-.453.269-.25.659-.538.867-.64.208-.103.605-.324.882-.492.602-.364 2.899-2.739 2.899-2.997 0-.099.283-.487.63-.86.346-.374.63-.834.63-1.022 0-.187.102-.341.227-.341.255 0 1.285-3.198 1.285-3.988 0-.279.142-.554.315-.612.245-.081.315-2.186.315-9.389 0-7.203-.07-9.307-.315-9.388-.173-.058-.315-.304-.315-.546 0-.843-1.079-3.874-1.546-4.341-.259-.258-.47-.626-.47-.818 0-.192-.284-.535-.63-.762-.347-.228-.633-.552-.636-.723-.002-.17-.409-.649-.903-1.065-.494-.416-1.144-.985-1.444-1.265-.3-.281-.998-.734-1.55-1.009-.553-.274-1.139-.623-1.303-.775-.164-.152-.846-.427-1.516-.612-.67-.184-1.277-.421-1.349-.527-.377-.551-5.126-.814-7.801-.432m-59.828 42.977c.74.234 1.345.506 1.345.605 0 .1.568.385 1.261.634s1.26.53 1.26.625c0 .094.68.426 1.512.737s1.513.642 1.513.736c0 .094.381.309.848.478.466.168 1.108.531 1.425.806.317.275.708.5.868.5.161 0 .534.226.83.501.295.276.988.736 1.538 1.023.55.286 1.064.685 1.14.885.077.2.281.364.454.364.299 0 .58.231 2.217 1.827.392.381.822.693.956.693s.684.463 1.222 1.029c.538.566 1.591 1.615 2.34 2.331 1.773 1.695 2.167 2.129 4.247 4.67.381.465 1.004 1.142 1.385 1.505s.693.798.693.967c0 .169.199.458.441.641.498.376 1.014 1.118 1.234 1.775.082.242.241.441.355.441.114 0 .462.454.773 1.008.312.555.654 1.008.761 1.008.106 0 .394.426.638.945.245.52.647 1.165.894 1.434.247.269.449.641.449.827 0 .186.155.398.343.47.189.073.604.75.923 1.505.32.755.65 1.372.735 1.372.085 0 .379.51.652 1.132.274.623.572 1.133.662 1.135.09.001.367.569.617 1.262.249.693.531 1.26.626 1.26.095 0 .436.653.757 1.45.322.797.718 1.584.88 1.75.162.166.447.818.634 1.449.186.632.423 1.148.526 1.148.103 0 .362.59.576 1.309.214.72.501 1.379.638 1.463.137.085.499.999.805 2.031.306 1.032.654 1.944.772 2.026.119.082.39.819.604 1.638.214.819.472 1.546.573 1.615.101.07.452 1.176.779 2.458.327 1.282.671 2.331.763 2.331.092 0 .379 1.191.638 2.647.258 1.455.559 2.646.667 2.646.253 0 .26 5.223.008 5.335-.104.047-.398.878-.653 1.848-.254.969-.553 1.82-.663 1.89-.111.07-.464.689-.786 1.377-.635 1.354-.933 1.759-2.183 2.966-.45.436-.819.945-.819 1.131 0 .187-.198.413-.441.503-.243.09-.847.569-1.343 1.064-.939.936-2.058 1.713-2.816 1.953-.242.077-.441.224-.441.328 0 .104-.538.394-1.197.646-.658.251-1.331.591-1.494.754-.164.164-1.298.502-2.521.752-1.223.25-2.354.555-2.514.677-.417.318-6.741.277-6.848-.045-.048-.142-.332-.259-.633-.259-.818.001-6.072-1.067-6.217-1.263-.069-.094-1.175-.372-2.457-.619-1.283-.247-2.332-.53-2.332-.629 0-.099-1.474-.444-3.276-.765-1.803-.322-3.277-.662-3.277-.755 0-.093-1.134-.377-2.521-.632-1.386-.254-2.52-.538-2.52-.631 0-.093-1.191-.373-2.647-.623-1.455-.249-2.646-.534-2.646-.632 0-.099-1.474-.445-3.277-.77-1.802-.324-3.276-.682-3.276-.794 0-.112-.238-.204-.529-.204-.291 0-.915-.183-1.387-.407l-.857-.407v-29.209c0-17.897.091-29.209.235-29.209.13 0 .313-.255.408-.567.095-.312.553-.964 1.017-1.449 1.808-1.889 2.877-3.092 2.883-3.244.003-.087.372-.573.819-1.08.447-.506 1.097-1.294 1.444-1.75.346-.456.942-1.136 1.323-1.512.381-.375.693-.798.693-.94 0-.143.261-.466.58-.718.32-.253.659-.63.755-.838.339-.737.815-1.372 1.374-1.835.312-.259.568-.635.568-.838 0-.202.174-.434.387-.516.213-.082.556-.475.763-.874.435-.842.722-.876 2.545-.302m-41.591.698c.464.478.844.98.844 1.116 0 .135.284.469.631.742.346.272.63.613.63.756 0 .143.283.483.63.756.346.273.63.58.63.683 0 .236 1.838 2.572 3.088 3.925.519.563.945 1.117.945 1.232 0 .115.34.496.756.846s.757.728.757.841c.001.204 1.233 1.7 2.29 2.783.637.652 1.238 1.739 1.238 2.24 0 .192.113.35.252.35.166 0 .252 9.703.252 28.607s-.086 28.607-.252 28.607c-.139 0-.252.164-.252.364 0 .485-.979 1.149-1.695 1.149-.315 0-.574.092-.574.204 0 .112-1.474.47-3.276.794-1.803.325-3.277.668-3.277.762 0 .095-1.134.38-2.52.634-1.387.255-2.521.538-2.521.63 0 .093-1.134.376-2.52.63-1.387.255-2.521.543-2.521.64 0 .097-1.333.437-2.961.754-1.629.318-3.019.65-3.088.739-.069.088-1.26.37-2.647.625-1.386.255-2.577.541-2.646.636-.069.095-1.657.443-3.529.773-1.871.33-3.478.71-3.571.845-.231.336-7.258.322-7.476-.016-.093-.143-.623-.339-1.177-.435-1.516-.262-3.403-.916-3.403-1.178 0-.128-.175-.232-.39-.232-.392 0-1.893-.691-2.13-.98-.069-.085-.427-.324-.794-.532-.921-.522-2.235-1.527-2.882-2.206-.297-.312-.667-.567-.821-.567-.154 0-.478-.312-.719-.693-.241-.381-.669-.929-.951-1.217-.973-.995-1.437-1.676-1.935-2.837-.275-.641-.591-1.225-.702-1.297-.255-.165-1.026-2.802-1.026-3.509 0-.291-.113-.529-.252-.529-.299 0-.353-5.711-.056-5.839.108-.046.388-1.096.624-2.334.235-1.237.523-2.314.64-2.394.116-.08.48-1.166.808-2.413.328-1.248.678-2.325.778-2.395.1-.069.357-.796.571-1.615.214-.819.489-1.556.611-1.638.122-.082.489-1.028.816-2.103.326-1.074.67-1.953.765-1.953.094 0 .367-.624.607-1.386.24-.763.523-1.387.63-1.387.107 0 .39-.623.63-1.386.24-.762.515-1.386.611-1.386.095 0 .45-.737.787-1.638.337-.901.692-1.639.79-1.639.098 0 .309-.396.469-.88.16-.484.435-.966.611-1.071.176-.105.523-.73.771-1.388.248-.659.546-1.198.662-1.198.116 0 .455-.567.753-1.26.299-.693.621-1.26.717-1.26.096 0 .363-.397.595-.882.231-.485.508-.882.615-.882.107 0 .354-.369.55-.82.195-.45.62-1.089.943-1.42.324-.331.589-.75.589-.931 0-.181.206-.478.458-.659.252-.181.534-.499.628-.707.325-.719.806-1.38 1.246-1.712.242-.183.441-.484.441-.668 0-.184.283-.521.63-.748.346-.227.63-.555.63-.729 0-.174.312-.602.693-.952.381-.35 1.09-1.136 1.575-1.746.486-.61 1.209-1.398 1.608-1.751 1.142-1.01 3.433-3.383 3.433-3.556 0-.087.403-.374.894-.638.492-.264 1.062-.736 1.266-1.048.205-.312.527-.567.716-.567.188 0 .529-.283.756-.63.227-.347.584-.63.793-.63.209 0 .445-.171.526-.379.08-.209.558-.571 1.063-.804.505-.233 1.188-.686 1.519-1.007.331-.32.751-.583.933-.583.182 0 .422-.141.532-.315.111-.173.656-.542 1.21-.819.555-.277 1.21-.685 1.456-.907.246-.221.898-.552 1.449-.733.551-.182 1.002-.411 1.002-.508 0-.098.539-.381 1.197-.63.659-.249 1.254-.537 1.324-.641.662-.989 3.694-.905 4.7.13" fill="#04ac6c" fill-rule="evenodd"/></svg>